<svg id="svg" version="1.1" width="400" height="421.0526315789474" viewBox="0 0 400 421.0526315789474" xmlns="http://www.w3.org/2000/svg" xmlns:xlink="http://www.w3.org/1999/xlink" ><g id="svgg"><path id="path0" d="M73.066 30.518 C 73.244 31.223,73.382 32.472,73.375 33.293 C 73.368 34.114,73.491 34.577,73.649 34.321 C 73.811 34.058,74.050 34.542,74.197 35.428 C 74.578 37.729,75.235 41.251,75.496 42.400 C 75.622 42.950,75.763 43.850,75.810 44.400 C 76.210 49.054,76.508 51.586,76.781 52.638 C 76.962 53.338,76.937 54.169,76.724 54.550 C 76.479 54.988,76.510 55.720,76.812 56.635 C 77.068 57.411,77.326 60.562,77.387 63.637 C 77.447 66.713,77.593 69.327,77.712 69.445 C 77.830 69.563,77.766 70.222,77.569 70.910 C 77.313 71.801,77.352 72.249,77.705 72.473 C 78.067 72.703,78.073 72.789,77.727 72.794 C 77.399 72.798,77.242 73.992,77.214 76.700 C 77.162 81.810,77.101 82.386,76.646 82.105 C 76.415 81.962,76.389 82.171,76.580 82.634 C 76.973 83.588,76.974 83.708,76.611 86.400 C 76.447 87.610,76.261 89.140,76.196 89.800 C 76.131 90.460,75.882 91.990,75.644 93.200 C 75.406 94.410,75.144 96.120,75.062 97.000 C 74.980 97.880,74.818 98.870,74.701 99.200 C 74.584 99.530,73.994 101.911,73.390 104.490 C 72.721 107.349,72.133 109.082,71.884 108.928 C 71.657 108.788,71.598 108.873,71.750 109.120 C 72.175 109.807,71.578 111.806,71.148 111.138 C 70.939 110.814,70.905 111.143,71.063 111.962 C 71.252 112.943,71.195 113.244,70.862 113.039 C 70.608 112.881,70.400 112.933,70.400 113.153 C 70.400 113.373,70.580 113.664,70.800 113.800 C 71.020 113.936,71.186 114.262,71.168 114.524 C 71.146 114.867,71.081 114.861,70.935 114.500 C 70.530 113.496,70.200 114.042,70.211 115.700 C 70.218 116.635,70.091 117.588,69.931 117.818 C 69.620 118.262,68.227 124.318,67.818 127.000 C 67.562 128.680,67.195 130.723,67.027 131.400 C 66.780 132.398,66.376 134.724,66.229 136.000 C 66.139 136.770,65.882 138.570,65.656 140.000 C 64.762 145.661,64.400 158.001,64.915 165.298 C 65.377 171.856,67.601 183.477,68.504 184.055 C 68.723 184.196,68.811 184.466,68.698 184.655 C 68.586 184.845,68.679 185.450,68.906 186.000 C 69.133 186.550,69.386 187.352,69.469 187.783 C 69.552 188.213,69.751 188.663,69.910 188.783 C 70.189 188.991,70.397 189.846,70.515 191.271 C 70.546 191.639,70.732 191.842,70.929 191.721 C 71.129 191.597,71.159 191.900,70.997 192.410 C 70.763 193.145,70.832 193.273,71.354 193.073 C 71.784 192.908,72.023 193.055,72.068 193.513 C 72.106 193.891,72.171 194.560,72.212 195.000 C 72.253 195.440,72.312 196.036,72.343 196.324 C 72.375 196.612,72.553 196.753,72.740 196.637 C 72.927 196.522,73.264 196.826,73.489 197.314 C 73.714 197.801,74.326 199.092,74.849 200.181 C 75.372 201.271,75.755 202.306,75.700 202.481 C 75.645 202.657,75.780 202.800,76.000 202.800 C 76.220 202.800,76.355 202.939,76.300 203.108 C 76.089 203.758,77.726 206.770,78.156 206.525 C 78.400 206.386,78.471 206.414,78.314 206.588 C 78.157 206.763,78.240 207.287,78.499 207.753 C 78.758 208.219,78.932 208.735,78.885 208.900 C 78.838 209.065,78.994 209.155,79.232 209.100 C 79.470 209.045,79.935 209.394,80.265 209.876 C 80.844 210.721,80.812 210.761,79.333 211.021 C 78.490 211.169,77.395 211.544,76.900 211.854 C 76.405 212.164,76.000 212.322,76.000 212.204 C 76.000 212.086,74.695 212.656,73.100 213.470 C 71.505 214.284,69.948 214.994,69.640 215.049 C 69.332 215.103,68.930 215.384,68.746 215.673 C 68.563 215.963,68.409 216.048,68.406 215.862 C 68.401 215.556,64.877 217.406,64.400 217.965 C 64.290 218.094,63.570 218.514,62.800 218.898 C 62.030 219.281,61.044 219.821,60.610 220.098 C 57.241 222.240,55.641 223.108,55.438 222.904 C 55.307 222.774,55.200 222.865,55.200 223.106 C 55.200 223.348,54.858 223.655,54.440 223.787 C 54.023 223.920,53.213 224.496,52.640 225.069 C 52.068 225.641,51.600 225.985,51.600 225.834 C 51.600 225.683,51.174 226.018,50.654 226.579 C 50.134 227.141,49.532 227.600,49.316 227.600 C 49.100 227.600,48.598 227.960,48.200 228.400 C 47.802 228.840,47.269 229.200,47.016 229.200 C 46.554 229.200,42.568 232.371,40.059 234.734 C 39.322 235.429,38.512 235.879,38.259 235.734 C 38.007 235.590,37.914 235.600,38.053 235.756 C 38.192 235.912,36.344 237.978,33.947 240.347 C 31.549 242.716,29.710 244.777,29.860 244.927 C 30.010 245.077,29.865 245.200,29.536 245.200 C 29.208 245.200,28.517 245.650,28.000 246.200 C 27.483 246.750,27.167 247.200,27.297 247.200 C 27.427 247.200,26.963 247.823,26.267 248.584 C 23.832 251.245,21.178 254.603,21.225 254.964 C 21.250 255.164,21.016 255.471,20.704 255.646 C 20.391 255.821,19.280 257.413,18.234 259.185 C 17.188 260.956,16.192 262.319,16.022 262.214 C 15.852 262.108,15.760 262.455,15.818 262.984 C 15.895 263.682,15.765 263.885,15.345 263.724 C 15.027 263.602,14.805 263.659,14.852 263.851 C 14.899 264.043,13.919 266.270,12.676 268.800 C 11.433 271.330,9.970 274.660,9.426 276.200 C 8.805 277.957,8.244 278.952,7.918 278.871 C 7.520 278.773,7.509 278.854,7.871 279.223 C 8.152 279.509,8.212 279.964,8.018 280.351 C 7.839 280.708,7.516 281.450,7.300 282.000 C 7.084 282.550,6.682 283.478,6.406 284.062 C 6.131 284.646,6.027 285.321,6.176 285.562 C 6.325 285.803,6.285 286.000,6.087 286.000 C 5.746 286.000,4.988 288.786,4.617 291.400 C 4.524 292.060,4.265 293.590,4.043 294.800 C 3.322 298.717,3.184 299.754,3.001 302.600 C 2.902 304.140,2.717 306.840,2.589 308.600 C 2.372 311.596,2.950 322.732,3.461 325.400 C 3.587 326.060,3.685 326.870,3.679 327.200 C 3.664 327.979,4.807 334.420,5.099 335.200 C 5.222 335.530,5.284 336.115,5.236 336.500 C 5.189 336.885,5.296 337.200,5.475 337.200 C 5.654 337.200,5.838 337.650,5.883 338.200 C 6.029 339.953,6.128 340.400,6.367 340.400 C 6.596 340.400,6.733 341.355,6.863 343.878 C 6.900 344.581,7.103 345.121,7.315 345.078 C 7.822 344.975,9.595 350.356,9.146 350.634 C 8.956 350.751,8.803 351.062,8.806 351.324 C 8.810 351.610,8.967 351.561,9.200 351.200 C 9.413 350.870,9.604 350.690,9.624 350.800 C 9.822 351.874,10.052 352.626,11.029 355.400 C 11.649 357.160,12.302 358.660,12.479 358.733 C 12.655 358.807,12.800 359.302,12.800 359.833 C 12.800 360.365,13.010 360.800,13.267 360.800 C 13.523 360.800,13.620 360.913,13.483 361.051 C 13.345 361.189,13.485 361.909,13.795 362.651 C 14.106 363.393,14.266 364.000,14.151 364.000 C 14.037 364.000,14.226 364.283,14.571 364.629 C 14.917 364.974,15.200 365.705,15.200 366.252 C 15.200 366.799,15.361 367.148,15.558 367.026 C 15.969 366.772,16.434 367.757,16.253 368.500 C 16.186 368.775,16.213 368.846,16.313 368.657 C 16.509 368.288,18.774 372.167,19.002 373.261 C 19.194 374.189,20.382 376.469,21.097 377.285 C 21.427 377.662,21.594 378.238,21.469 378.565 C 21.330 378.928,21.532 379.252,21.991 379.397 C 22.539 379.571,22.691 379.908,22.557 380.650 C 22.442 381.284,22.527 381.568,22.786 381.408 C 23.014 381.268,23.200 381.444,23.200 381.800 C 23.200 382.188,23.385 382.333,23.663 382.161 C 23.983 381.963,24.053 382.153,23.890 382.777 C 23.760 383.273,23.769 383.565,23.908 383.425 C 24.048 383.285,24.547 383.808,25.017 384.587 L 25.872 386.004 108.136 386.102 C 184.236 386.193,190.400 386.151,190.400 385.542 C 190.400 384.526,189.614 377.103,189.388 375.990 C 189.278 375.446,189.096 374.100,188.983 373.000 C 188.871 371.900,188.701 370.730,188.604 370.400 C 188.508 370.070,188.326 369.170,188.201 368.400 C 188.076 367.630,187.779 366.394,187.540 365.652 C 187.198 364.588,187.221 364.231,187.653 363.952 C 188.021 363.716,188.061 363.502,187.777 363.300 C 187.261 362.934,186.490 361.013,186.225 359.432 C 186.117 358.790,185.827 358.140,185.580 357.988 C 185.333 357.835,185.166 357.592,185.209 357.447 C 185.366 356.912,184.715 354.184,184.315 353.700 C 184.088 353.425,184.036 353.200,184.200 353.200 C 184.364 353.200,184.298 352.959,184.053 352.664 C 183.270 351.720,181.568 345.934,181.815 345.052 C 182.011 344.348,181.972 344.304,181.592 344.800 C 181.211 345.296,181.165 345.244,181.328 344.499 C 181.437 344.004,181.383 343.687,181.209 343.794 C 180.740 344.084,179.874 341.733,180.226 341.124 C 180.392 340.836,180.381 340.734,180.200 340.897 C 179.862 341.204,178.621 339.720,178.608 338.992 C 178.594 338.258,177.087 335.200,176.739 335.200 C 176.553 335.200,176.400 335.016,176.400 334.792 C 176.400 334.568,175.911 333.623,175.314 332.692 C 174.717 331.761,174.267 330.865,174.314 330.700 C 174.361 330.535,174.199 330.400,173.953 330.400 C 173.697 330.400,173.600 330.043,173.726 329.560 C 173.847 329.099,173.847 328.820,173.725 328.941 C 173.464 329.203,172.400 328.212,172.400 327.707 C 172.400 327.289,170.001 323.921,169.413 323.515 C 169.186 323.358,168.978 323.043,168.950 322.815 C 168.923 322.587,168.878 322.220,168.850 322.000 C 168.822 321.780,168.542 321.600,168.227 321.600 C 167.912 321.600,167.549 321.285,167.420 320.900 C 167.291 320.515,166.201 319.120,164.997 317.800 C 163.792 316.480,162.805 315.286,162.804 315.147 C 162.802 315.007,162.442 314.800,162.005 314.685 C 161.567 314.571,161.028 313.999,160.806 313.415 C 160.583 312.830,160.240 312.452,160.043 312.574 C 159.845 312.696,159.571 312.501,159.432 312.140 C 159.294 311.780,159.091 311.576,158.981 311.686 C 158.871 311.796,158.089 311.237,157.243 310.443 C 155.181 308.507,153.199 306.849,152.954 306.855 C 152.844 306.858,152.180 306.430,151.477 305.905 C 149.722 304.592,146.417 302.800,145.750 302.800 C 145.447 302.800,145.200 302.662,145.200 302.493 C 145.200 302.324,144.125 301.759,142.811 301.237 C 141.497 300.715,140.507 300.150,140.611 299.981 C 140.716 299.813,140.413 299.776,139.938 299.900 C 139.374 300.048,139.168 299.975,139.344 299.691 C 139.492 299.451,139.402 299.125,139.145 298.966 C 138.852 298.785,138.784 298.850,138.962 299.138 C 139.141 299.428,138.950 299.600,138.447 299.600 C 138.007 299.600,137.517 299.389,137.358 299.132 C 137.156 298.805,137.300 298.752,137.834 298.956 C 138.434 299.184,138.496 299.142,138.117 298.761 C 137.754 298.395,137.498 298.387,137.085 298.730 C 136.662 299.081,136.345 299.009,135.710 298.417 C 135.256 297.994,134.821 297.712,134.742 297.791 C 134.610 297.924,132.352 297.544,130.000 296.993 C 128.594 296.664,121.928 295.629,121.639 295.695 C 121.154 295.807,117.748 295.111,116.070 294.559 C 115.119 294.246,114.144 294.111,113.902 294.260 C 113.637 294.424,113.549 294.308,113.680 293.966 C 113.837 293.555,113.549 293.393,112.627 293.373 C 110.708 293.333,109.667 292.860,110.411 292.366 C 110.839 292.082,110.715 292.042,109.957 292.217 C 108.852 292.472,106.157 291.176,106.689 290.644 C 106.847 290.487,106.671 290.475,106.298 290.618 C 105.906 290.768,105.351 290.608,104.982 290.239 C 104.630 289.887,104.086 289.600,103.771 289.600 C 103.457 289.600,102.885 289.315,102.500 288.966 C 102.115 288.617,100.000 287.089,97.800 285.571 C 95.600 284.052,93.800 282.668,93.800 282.495 C 93.800 282.323,93.080 281.405,92.200 280.456 C 91.320 279.506,90.454 278.472,90.275 278.156 C 90.097 277.841,89.754 277.705,89.514 277.853 C 89.273 278.002,89.181 277.955,89.309 277.748 C 89.436 277.541,89.014 276.769,88.370 276.032 C 87.727 275.295,87.200 274.549,87.200 274.374 C 87.200 274.200,86.975 273.819,86.700 273.529 C 85.956 272.742,83.330 267.250,82.765 265.300 C 82.495 264.365,82.118 263.600,81.929 263.600 C 81.739 263.600,81.664 263.160,81.761 262.623 C 81.859 262.086,81.786 261.591,81.600 261.523 C 81.414 261.455,81.183 260.770,81.088 260.000 C 80.993 259.230,80.755 258.630,80.558 258.667 C 80.361 258.703,80.220 258.163,80.243 257.467 C 80.267 256.770,80.147 256.108,79.976 255.997 C 78.546 255.061,78.483 230.131,79.905 227.831 C 80.047 227.600,80.187 226.855,80.214 226.177 C 80.242 225.498,80.395 224.731,80.555 224.473 C 80.955 223.826,81.249 222.522,81.720 219.308 C 81.792 218.818,81.962 218.305,82.098 218.169 C 82.234 218.033,82.255 217.688,82.145 217.401 C 82.035 217.115,82.138 216.762,82.373 216.617 C 82.977 216.243,82.907 215.492,82.300 215.835 C 81.900 216.061,81.900 216.010,82.300 215.579 C 82.575 215.282,82.814 214.671,82.832 214.220 C 82.854 213.636,82.929 213.573,83.091 214.000 C 83.216 214.330,83.830 215.095,84.456 215.700 C 85.081 216.305,85.513 216.800,85.415 216.800 C 85.317 216.800,86.799 218.420,88.709 220.400 C 90.619 222.380,92.400 224.000,92.668 224.000 C 92.936 224.000,93.468 224.530,93.851 225.178 C 94.234 225.826,94.670 226.280,94.821 226.187 C 94.972 226.094,95.614 226.473,96.248 227.029 C 97.847 228.434,102.484 231.421,102.876 231.300 C 103.054 231.245,103.200 231.410,103.200 231.667 C 103.200 231.923,103.318 232.015,103.463 231.870 C 103.823 231.511,104.845 232.403,104.575 232.841 C 104.456 233.033,104.667 233.072,105.045 232.927 C 105.440 232.776,105.631 232.826,105.495 233.046 C 105.365 233.257,105.561 233.452,105.929 233.481 C 106.298 233.510,106.870 233.620,107.200 233.726 C 107.530 233.831,108.205 234.047,108.700 234.206 C 109.195 234.364,109.600 234.647,109.600 234.834 C 109.600 235.022,109.847 235.080,110.148 234.964 C 110.450 234.849,110.957 235.014,111.275 235.332 C 111.939 235.996,117.226 237.978,118.647 238.096 C 119.199 238.141,119.603 238.433,119.606 238.787 C 119.611 239.259,119.688 239.281,119.939 238.884 C 120.172 238.518,120.546 238.475,121.233 238.736 C 122.256 239.124,124.380 239.495,128.000 239.917 C 132.638 240.459,145.660 240.189,148.800 239.486 C 151.140 238.962,152.152 238.907,153.400 239.236 C 154.280 239.467,155.273 239.697,155.607 239.747 C 156.741 239.916,157.345 240.463,156.781 240.812 C 156.455 241.014,156.615 241.123,157.239 241.122 C 158.692 241.121,159.305 241.335,160.713 242.338 C 161.421 242.842,162.000 243.152,162.000 243.027 C 162.000 242.902,162.315 243.082,162.700 243.426 C 164.092 244.670,167.008 246.792,167.330 246.796 C 167.662 246.800,172.109 250.098,173.161 251.120 C 173.470 251.420,174.675 252.369,175.840 253.229 C 177.004 254.090,178.377 255.200,178.891 255.697 C 179.404 256.194,180.449 257.096,181.212 257.703 C 182.609 258.812,186.600 262.473,189.200 265.029 C 189.970 265.786,190.855 266.404,191.167 266.403 C 191.478 266.401,191.615 266.518,191.470 266.663 C 191.103 267.030,192.008 268.042,192.455 267.766 C 192.656 267.642,192.771 267.689,192.711 267.870 C 192.565 268.315,197.920 273.795,198.523 273.818 C 198.785 273.828,198.955 274.053,198.900 274.318 C 198.845 274.583,199.072 274.800,199.403 274.800 C 200.141 274.800,202.450 272.805,202.193 272.389 C 202.092 272.225,202.366 271.998,202.802 271.883 C 203.239 271.769,203.722 271.348,203.875 270.948 C 204.246 269.983,212.948 261.579,219.200 256.150 C 220.410 255.099,221.355 254.095,221.300 253.920 C 221.245 253.744,221.476 253.600,221.813 253.600 C 222.149 253.600,222.529 253.330,222.655 253.000 C 222.782 252.670,223.137 252.400,223.444 252.400 C 223.752 252.400,224.857 251.590,225.901 250.599 C 226.946 249.609,228.115 248.697,228.500 248.572 C 228.885 248.448,229.200 248.169,229.200 247.953 C 229.200 247.738,229.919 247.239,230.798 246.845 C 231.677 246.452,232.277 246.011,232.132 245.865 C 231.986 245.719,232.177 245.600,232.557 245.600 C 232.977 245.600,233.135 245.419,232.962 245.138 C 232.788 244.858,232.852 244.785,233.123 244.953 C 233.555 245.220,235.536 244.103,237.600 242.429 C 238.150 241.983,238.753 241.614,238.940 241.609 C 239.126 241.604,239.846 241.348,240.540 241.040 C 244.703 239.188,247.159 238.768,249.978 239.426 C 252.757 240.074,252.099 240.031,261.447 240.169 C 265.652 240.231,270.242 240.133,271.647 239.950 C 275.176 239.490,281.695 237.995,282.300 237.506 C 282.575 237.284,282.800 237.206,282.800 237.333 C 282.800 237.670,287.379 235.892,290.808 234.223 C 292.438 233.430,294.013 232.873,294.307 232.986 C 294.601 233.099,294.737 233.022,294.610 232.815 C 294.320 232.348,295.874 231.475,296.408 231.805 C 296.624 231.938,296.800 231.886,296.800 231.689 C 296.800 231.492,298.245 230.380,300.011 229.217 C 301.777 228.055,303.487 226.726,303.811 226.263 C 304.227 225.668,304.408 225.595,304.427 226.011 C 304.443 226.363,304.629 226.238,304.888 225.700 C 305.127 225.205,305.470 224.800,305.650 224.800 C 305.831 224.800,307.507 223.360,309.376 221.600 C 311.244 219.840,312.649 218.400,312.497 218.400 C 312.346 218.400,312.622 218.120,313.111 217.777 C 313.600 217.435,314.000 216.969,314.000 216.741 C 314.000 216.117,315.700 214.828,316.543 214.813 C 317.060 214.804,317.211 214.993,317.041 215.436 C 316.907 215.786,316.928 216.281,317.088 216.536 C 317.248 216.791,317.384 217.270,317.389 217.600 C 317.395 217.930,317.633 218.152,317.917 218.094 C 318.309 218.014,318.334 218.177,318.017 218.768 C 317.526 219.686,317.480 220.121,317.902 219.861 C 318.068 219.758,318.203 220.243,318.202 220.937 C 318.201 221.758,318.381 222.163,318.717 222.094 C 319.125 222.011,319.136 222.171,318.772 222.853 C 318.392 223.562,318.429 223.784,318.977 224.091 C 319.526 224.398,319.554 224.573,319.137 225.076 C 318.724 225.574,318.740 225.771,319.226 226.143 C 319.554 226.394,319.873 227.320,319.935 228.200 C 319.997 229.080,320.231 230.970,320.455 232.400 C 321.395 238.408,320.559 255.960,319.296 256.741 C 319.063 256.885,318.905 257.677,318.943 258.501 C 318.992 259.540,318.845 260.000,318.464 260.000 C 318.157 260.000,318.009 260.247,318.130 260.561 C 318.248 260.869,318.229 261.238,318.087 261.380 C 317.945 261.522,317.803 262.116,317.772 262.700 C 317.740 263.284,317.509 263.830,317.257 263.914 C 317.006 263.998,316.800 264.493,316.800 265.013 C 316.800 265.534,316.485 266.144,316.100 266.368 C 315.658 266.625,315.595 266.780,315.929 266.788 C 316.625 266.804,312.020 275.600,311.317 275.600 C 311.033 275.600,310.800 275.791,310.800 276.024 C 310.800 276.257,311.024 276.311,311.300 276.144 C 311.741 275.877,310.805 276.998,308.733 279.219 C 308.367 279.612,308.172 280.038,308.300 280.167 C 308.428 280.295,308.347 280.400,308.119 280.400 C 307.891 280.400,306.646 281.392,305.352 282.605 C 302.129 285.627,301.220 286.400,300.886 286.402 C 300.729 286.403,299.654 287.121,298.497 287.998 C 297.340 288.875,296.260 289.596,296.097 289.601 C 295.320 289.624,294.400 290.097,294.400 290.474 C 294.400 290.704,294.040 290.799,293.599 290.684 C 293.159 290.569,292.888 290.618,292.996 290.794 C 293.288 291.266,288.150 293.343,287.401 293.056 C 286.980 292.894,286.856 292.967,287.042 293.268 C 287.234 293.579,287.049 293.654,286.462 293.500 C 285.987 293.376,285.700 293.438,285.823 293.637 C 285.946 293.837,285.902 294.004,285.724 294.009 C 285.546 294.015,284.053 294.377,282.406 294.815 C 280.759 295.253,278.479 295.693,277.339 295.793 C 272.645 296.204,267.055 297.340,266.239 298.049 C 266.040 298.221,265.545 298.185,265.139 297.967 C 264.555 297.655,264.400 297.715,264.400 298.253 C 264.400 298.627,264.287 298.821,264.149 298.683 C 264.011 298.545,263.360 298.710,262.703 299.050 C 262.045 299.391,261.167 299.580,260.753 299.472 C 260.285 299.349,260.099 299.436,260.262 299.700 C 260.431 299.973,260.215 300.045,259.662 299.900 C 259.187 299.776,258.887 299.817,258.994 299.991 C 259.102 300.165,258.607 300.536,257.895 300.816 C 254.844 302.014,250.800 304.087,250.800 304.452 C 250.800 304.669,250.647 304.753,250.461 304.637 C 250.274 304.522,249.734 304.788,249.261 305.229 C 248.787 305.670,248.400 305.906,248.400 305.754 C 248.400 305.601,248.040 305.802,247.600 306.200 C 247.160 306.598,246.796 306.761,246.791 306.562 C 246.786 306.363,246.471 306.571,246.091 307.024 C 245.711 307.477,244.185 308.813,242.700 309.994 C 241.215 311.174,240.000 312.299,240.000 312.493 C 240.000 312.688,239.820 312.736,239.600 312.600 C 239.380 312.464,239.200 312.644,239.200 313.000 C 239.200 313.356,239.040 313.548,238.845 313.428 C 238.649 313.307,237.806 314.061,236.970 315.104 C 236.134 316.147,235.169 317.289,234.825 317.643 C 233.511 318.994,232.400 320.420,232.400 320.754 C 232.400 320.946,231.995 321.403,231.500 321.770 C 231.005 322.137,230.870 322.318,231.200 322.172 C 231.530 322.026,231.305 322.353,230.700 322.900 C 230.095 323.446,229.600 324.097,229.600 324.347 C 229.600 324.596,229.409 324.800,229.176 324.800 C 228.943 324.800,228.858 324.971,228.988 325.180 C 229.117 325.389,228.857 325.755,228.411 325.994 C 227.965 326.233,227.600 326.692,227.600 327.014 C 227.600 327.336,227.459 327.600,227.288 327.600 C 227.116 327.600,226.756 328.095,226.488 328.700 C 225.538 330.843,224.271 332.767,223.942 332.564 C 223.759 332.451,223.709 332.620,223.832 332.939 C 223.954 333.258,223.859 333.640,223.621 333.787 C 223.382 333.935,223.291 334.223,223.417 334.428 C 223.544 334.632,223.473 334.800,223.259 334.800 C 222.859 334.800,221.200 337.923,221.200 338.677 C 221.200 338.911,220.922 339.333,220.582 339.615 C 220.242 339.897,220.042 340.332,220.137 340.581 C 220.233 340.830,220.067 341.367,219.768 341.776 C 219.470 342.184,219.320 342.671,219.436 342.859 C 219.552 343.047,219.476 343.200,219.267 343.200 C 219.058 343.200,218.765 343.686,218.616 344.279 C 218.420 345.060,218.254 345.211,218.015 344.824 C 217.809 344.491,217.724 344.798,217.790 345.633 C 217.848 346.373,217.754 347.253,217.580 347.589 C 217.259 348.211,215.430 353.236,215.392 353.600 C 215.381 353.710,215.147 354.205,214.872 354.700 C 214.597 355.195,214.475 355.600,214.600 355.600 C 214.725 355.600,214.605 356.005,214.332 356.500 C 214.059 356.995,213.778 357.850,213.706 358.400 C 213.634 358.950,213.462 359.670,213.322 360.000 C 213.183 360.330,213.038 360.690,213.000 360.800 C 212.962 360.910,212.799 361.296,212.638 361.659 C 212.478 362.021,212.395 362.561,212.456 362.859 C 212.642 363.773,212.000 365.647,211.588 365.393 C 211.375 365.261,211.200 365.343,211.200 365.576 C 211.200 365.809,211.355 366.000,211.545 366.000 C 211.919 366.000,211.888 366.296,211.046 370.800 C 210.737 372.450,210.381 374.610,210.254 375.600 C 209.418 382.114,209.170 384.876,209.366 385.494 C 209.579 386.166,213.582 386.200,291.495 386.200 L 373.400 386.200 374.375 384.723 C 374.911 383.910,375.479 383.325,375.637 383.423 C 375.796 383.521,375.831 383.241,375.716 382.801 C 375.570 382.244,375.703 382.000,376.153 382.000 C 376.785 382.000,376.912 381.716,376.908 380.309 C 376.907 379.929,377.062 379.715,377.253 379.833 C 377.444 379.951,377.600 379.576,377.600 379.000 C 377.600 378.404,377.772 378.059,378.000 378.200 C 378.220 378.336,378.400 378.239,378.400 377.985 C 378.400 377.731,378.755 377.025,379.188 376.417 C 379.622 375.808,379.872 375.205,379.745 375.078 C 379.617 374.950,379.892 374.313,380.356 373.661 C 380.820 373.010,381.200 372.391,381.200 372.287 C 381.200 371.343,383.356 367.604,383.640 368.056 C 383.853 368.397,383.919 368.103,383.815 367.267 C 383.681 366.186,383.768 365.979,384.273 366.173 C 384.748 366.355,384.845 366.214,384.679 365.581 C 384.546 365.072,384.681 364.667,385.029 364.534 C 385.340 364.414,385.496 364.155,385.374 363.958 C 385.252 363.761,385.313 363.600,385.510 363.600 C 385.706 363.600,385.867 363.361,385.867 363.069 C 385.867 362.776,386.247 361.561,386.712 360.369 C 388.486 355.820,389.600 352.558,389.600 351.915 C 389.600 351.548,389.760 351.148,389.956 351.027 C 390.151 350.906,390.426 350.311,390.565 349.704 C 391.189 346.990,391.801 345.200,392.105 345.200 C 392.286 345.200,392.382 344.885,392.318 344.500 C 392.253 344.115,392.396 343.835,392.635 343.878 C 392.892 343.925,393.045 343.353,393.009 342.478 C 392.975 341.665,393.076 340.910,393.234 340.800 C 393.391 340.690,393.573 339.970,393.639 339.200 C 393.705 338.430,393.873 337.620,394.013 337.400 C 396.129 334.077,397.801 311.088,396.601 301.800 C 396.488 300.920,396.295 299.390,396.173 298.400 C 395.725 294.760,395.558 293.776,394.925 291.017 C 394.569 289.468,394.276 287.975,394.272 287.700 C 394.269 287.425,394.106 287.200,393.910 287.200 C 393.713 287.200,393.646 287.050,393.759 286.866 C 394.035 286.420,393.142 283.479,392.616 283.100 C 392.345 282.904,392.408 282.663,392.800 282.406 C 393.130 282.189,393.220 282.007,393.000 282.002 C 392.421 281.986,391.094 279.035,391.043 277.650 C 391.020 277.000,390.843 276.498,390.650 276.534 C 390.458 276.570,390.026 275.790,389.690 274.800 C 389.355 273.810,388.927 272.940,388.740 272.867 C 388.553 272.793,388.400 272.472,388.400 272.153 C 388.400 271.393,386.423 267.484,385.848 267.106 C 385.601 266.944,385.557 266.809,385.749 266.806 C 385.941 266.803,385.889 266.548,385.634 266.241 C 385.379 265.933,385.093 265.283,384.999 264.795 C 384.905 264.308,384.525 263.687,384.153 263.415 C 383.734 263.109,383.600 262.723,383.801 262.399 C 384.010 262.059,383.967 261.973,383.676 262.153 C 383.213 262.439,381.894 260.607,380.617 257.900 C 380.227 257.075,379.745 256.400,379.545 256.400 C 379.344 256.400,379.007 255.945,378.796 255.390 C 378.585 254.834,378.140 254.275,377.808 254.148 C 377.476 254.020,377.301 253.761,377.418 253.571 C 377.535 253.381,377.282 253.008,376.855 252.742 C 376.429 252.475,376.172 252.017,376.284 251.724 C 376.422 251.365,376.278 251.272,375.845 251.438 C 375.490 251.574,375.200 251.493,375.200 251.258 C 375.200 251.023,374.795 250.438,374.300 249.957 C 373.805 249.476,373.670 249.227,374.000 249.403 C 375.326 250.112,362.102 236.676,360.219 235.400 C 359.569 234.960,358.354 233.903,357.519 233.052 C 356.683 232.200,356.000 231.602,356.000 231.722 C 356.000 231.843,355.263 231.280,354.362 230.471 C 353.461 229.662,352.606 228.993,352.462 228.985 C 352.081 228.963,348.394 226.336,347.430 225.400 C 346.405 224.404,344.435 223.051,343.475 222.683 C 343.055 222.523,342.870 222.210,343.036 221.941 C 343.210 221.660,343.149 221.584,342.882 221.749 C 342.438 222.024,338.464 220.146,337.910 219.400 C 337.746 219.180,337.609 219.136,337.606 219.303 C 337.603 219.469,336.853 219.064,335.940 218.403 C 335.027 217.741,334.037 217.200,333.740 217.200 C 333.443 217.200,333.200 217.053,333.200 216.874 C 333.200 216.419,330.370 215.036,329.400 215.016 C 328.905 215.006,328.619 214.745,328.650 214.332 C 328.680 213.933,328.489 213.745,328.176 213.864 C 327.888 213.975,326.515 213.531,325.126 212.878 C 323.737 212.225,321.880 211.454,321.000 211.164 C 320.120 210.874,319.237 210.501,319.037 210.335 C 318.538 209.921,319.571 208.741,320.145 209.069 C 320.395 209.211,320.470 209.185,320.312 209.009 C 320.153 208.834,320.398 208.165,320.855 207.522 C 321.313 206.880,321.593 206.259,321.477 206.144 C 321.361 206.028,321.618 205.582,322.048 205.152 C 322.478 204.722,322.722 204.197,322.591 203.985 C 322.460 203.773,322.554 203.600,322.800 203.600 C 323.046 203.600,323.124 203.400,322.972 203.155 C 322.821 202.911,322.872 202.596,323.086 202.455 C 323.732 202.031,325.622 197.956,326.197 195.745 C 326.788 193.478,327.955 191.040,327.990 192.000 C 328.010 192.533,328.055 192.533,328.400 192.000 C 328.891 191.240,328.911 190.684,328.437 190.977 C 328.238 191.100,328.283 190.752,328.537 190.204 C 328.792 189.655,329.135 189.205,329.300 189.203 C 329.465 189.201,329.600 188.682,329.600 188.049 C 329.600 187.416,329.881 186.226,330.223 185.406 C 330.566 184.585,330.762 183.828,330.657 183.724 C 330.553 183.620,330.703 182.964,330.990 182.267 C 331.277 181.570,331.655 180.010,331.831 178.800 C 332.008 177.590,332.177 176.510,332.208 176.400 C 333.408 172.171,333.993 155.814,333.220 148.088 C 332.538 141.266,332.322 139.428,332.174 139.172 C 332.101 139.047,331.931 138.057,331.796 136.972 C 331.661 135.887,331.183 133.110,330.733 130.800 C 330.283 128.490,329.904 125.925,329.890 125.100 C 329.877 124.275,329.704 123.600,329.506 123.600 C 329.308 123.600,329.268 123.217,329.416 122.750 C 329.607 122.146,329.547 121.985,329.208 122.195 C 328.884 122.395,328.755 122.187,328.806 121.545 C 328.906 120.273,328.394 118.757,327.955 119.028 C 327.760 119.149,327.600 119.067,327.600 118.847 C 327.600 118.627,327.780 118.336,328.000 118.200 C 328.220 118.064,328.387 117.648,328.372 117.276 C 328.349 116.719,328.278 116.740,327.969 117.400 C 327.662 118.055,327.618 117.969,327.725 116.921 C 327.796 116.218,327.727 115.722,327.570 115.819 C 327.412 115.916,327.183 115.732,327.059 115.411 C 326.936 115.089,327.007 114.719,327.217 114.589 C 327.428 114.459,327.597 114.138,327.594 113.876 C 327.590 113.564,327.467 113.591,327.238 113.953 C 326.991 114.342,326.754 113.929,326.436 112.553 C 326.188 111.479,325.889 110.240,325.772 109.800 C 325.655 109.360,325.476 108.600,325.374 108.110 C 325.272 107.621,325.006 106.741,324.783 106.155 C 324.560 105.569,324.456 105.010,324.552 104.914 C 324.648 104.818,324.551 104.168,324.337 103.470 C 324.123 102.771,323.866 101.660,323.766 101.000 C 323.667 100.340,323.491 99.215,323.375 98.500 C 323.228 97.595,323.321 97.198,323.682 97.194 C 324.086 97.189,324.080 97.112,323.655 96.843 C 323.356 96.653,322.947 95.710,322.748 94.749 C 322.548 93.787,322.324 92.730,322.249 92.400 C 322.174 92.070,322.301 91.679,322.531 91.530 C 322.812 91.349,322.782 91.060,322.440 90.648 C 322.160 90.311,322.038 89.863,322.168 89.652 C 322.298 89.441,322.179 89.177,321.902 89.066 C 321.503 88.905,321.503 88.857,321.900 88.832 C 322.578 88.789,322.540 87.600,321.861 87.600 C 321.430 87.600,321.392 87.146,321.673 85.356 C 321.920 83.778,321.888 82.947,321.563 82.556 C 321.310 82.250,321.195 82.000,321.309 82.000 C 321.423 82.000,321.374 81.371,321.201 80.603 C 321.027 79.834,321.035 79.298,321.219 79.412 C 321.402 79.525,321.479 78.399,321.390 76.909 C 321.301 75.419,321.211 73.885,321.189 73.500 C 321.168 73.115,321.012 72.800,320.842 72.800 C 320.471 72.800,320.537 71.330,320.925 70.941 C 321.313 70.553,321.268 69.200,320.867 69.200 C 320.683 69.200,320.533 68.930,320.533 68.600 C 320.533 68.270,320.681 68.000,320.862 68.000 C 321.043 68.000,321.187 67.595,321.183 67.100 C 321.178 66.605,321.288 65.636,321.426 64.946 C 321.564 64.256,321.472 63.308,321.220 62.838 C 320.969 62.368,320.891 61.776,321.048 61.522 C 321.205 61.268,321.328 60.417,321.321 59.630 C 321.315 58.844,321.467 57.892,321.660 57.516 C 321.861 57.125,321.862 56.166,321.663 55.282 C 321.408 54.149,321.461 53.531,321.857 52.989 C 322.489 52.125,322.578 50.527,322.005 50.333 C 321.772 50.255,321.859 49.720,322.217 49.032 C 322.603 48.288,322.684 47.724,322.441 47.481 C 322.200 47.240,322.198 46.732,322.434 46.110 C 322.641 45.566,322.742 44.504,322.659 43.750 C 322.576 42.996,322.709 42.249,322.954 42.090 C 323.199 41.930,323.412 41.350,323.427 40.800 C 323.464 39.446,323.981 35.555,324.166 35.248 C 324.247 35.112,324.433 34.100,324.578 33.000 C 324.724 31.900,324.942 30.595,325.065 30.100 C 325.314 29.091,325.110 29.006,323.942 29.631 C 323.169 30.045,322.841 30.296,320.466 32.300 C 319.436 33.168,318.800 33.377,317.660 33.221 C 317.363 33.180,317.228 33.321,317.360 33.535 C 317.492 33.749,316.803 34.391,315.828 34.962 C 314.854 35.533,313.780 36.277,313.443 36.615 C 313.105 36.952,312.730 37.218,312.610 37.206 C 312.180 37.162,310.132 38.358,309.656 38.932 C 309.389 39.254,308.842 39.431,308.440 39.326 C 307.934 39.194,307.639 39.406,307.479 40.021 C 307.303 40.694,307.040 40.852,306.384 40.680 C 305.909 40.556,305.623 40.556,305.747 40.680 C 306.075 41.009,304.510 42.097,302.100 43.215 C 300.945 43.750,300.000 44.326,300.000 44.494 C 300.000 44.662,299.640 44.800,299.200 44.800 C 298.760 44.800,298.400 45.010,298.400 45.267 C 298.400 45.523,298.287 45.621,298.149 45.483 C 298.011 45.345,297.336 45.532,296.649 45.898 C 295.962 46.265,295.265 46.527,295.100 46.482 C 294.935 46.437,294.800 46.591,294.800 46.824 C 294.800 47.057,294.621 47.137,294.403 47.002 C 293.918 46.702,292.703 47.332,292.795 47.836 C 292.874 48.267,292.738 48.345,288.600 50.225 C 286.840 51.025,284.890 51.932,284.268 52.240 C 283.645 52.548,282.893 52.800,282.596 52.800 C 282.300 52.800,281.774 53.083,281.429 53.429 C 280.988 53.870,280.800 53.906,280.800 53.552 C 280.800 53.260,280.534 53.375,280.170 53.824 C 279.824 54.251,279.655 54.374,279.796 54.097 C 279.998 53.699,279.837 53.691,279.025 54.061 C 278.461 54.318,278.000 54.680,278.000 54.864 C 278.000 55.049,277.752 55.200,277.449 55.200 C 277.146 55.200,276.662 55.484,276.373 55.832 C 276.070 56.197,275.463 56.391,274.936 56.290 C 274.435 56.194,274.119 56.270,274.236 56.458 C 274.352 56.646,274.367 56.800,274.268 56.800 C 273.896 56.800,266.160 59.618,265.295 60.069 C 264.797 60.328,263.763 60.554,262.996 60.570 C 262.164 60.588,261.602 60.802,261.601 61.100 C 261.601 61.375,261.229 61.600,260.776 61.600 C 260.323 61.600,260.036 61.735,260.137 61.900 C 260.238 62.065,259.780 62.220,259.118 62.245 C 258.457 62.269,257.757 62.539,257.564 62.845 C 257.335 63.207,257.210 63.234,257.206 62.924 C 257.202 62.579,256.897 62.605,256.100 63.021 C 255.495 63.337,254.775 63.596,254.500 63.598 C 254.225 63.599,254.000 63.791,254.000 64.024 C 254.000 64.257,253.856 64.358,253.679 64.249 C 253.502 64.140,252.169 64.466,250.715 64.974 C 249.262 65.482,247.381 66.039,246.536 66.213 C 244.475 66.636,244.560 66.616,241.600 67.415 C 237.811 68.437,235.600 68.749,235.600 68.260 C 235.600 68.033,235.357 68.179,235.061 68.584 C 234.682 69.102,234.436 69.183,234.233 68.854 C 234.075 68.597,233.774 68.492,233.566 68.621 C 233.357 68.750,233.272 68.994,233.377 69.163 C 233.481 69.332,232.899 69.499,232.083 69.533 C 231.268 69.568,230.150 69.694,229.600 69.812 C 229.050 69.930,227.790 70.204,226.800 70.421 C 224.485 70.928,223.640 71.049,220.000 71.393 C 218.350 71.549,216.955 71.794,216.900 71.938 C 216.845 72.082,215.878 72.136,214.751 72.058 C 213.623 71.980,212.795 72.070,212.910 72.258 C 213.177 72.693,208.887 72.921,200.000 72.946 C 191.398 72.969,186.014 72.706,186.279 72.275 C 186.388 72.096,185.568 72.028,184.455 72.124 C 183.343 72.219,182.380 72.163,182.316 71.999 C 182.208 71.721,177.576 71.100,175.100 71.031 C 174.495 71.014,174.000 70.835,174.000 70.633 C 174.000 70.432,173.901 70.366,173.780 70.487 C 173.659 70.608,172.894 70.544,172.080 70.346 C 170.676 70.003,169.617 69.832,166.400 69.429 C 165.630 69.333,164.910 69.214,164.800 69.166 C 164.690 69.118,164.420 69.039,164.200 68.991 C 161.493 68.401,161.168 68.265,161.668 67.931 C 162.006 67.705,161.799 67.669,161.099 67.831 C 160.446 67.983,158.696 67.736,156.795 67.223 C 155.033 66.747,153.413 66.468,153.196 66.603 C 152.978 66.737,152.800 66.677,152.800 66.469 C 152.800 66.261,151.945 65.963,150.900 65.806 C 149.855 65.650,148.820 65.410,148.600 65.272 C 148.380 65.135,147.998 64.992,147.751 64.954 C 147.357 64.894,144.855 63.818,143.838 63.271 C 143.632 63.160,143.620 63.309,143.810 63.617 C 143.994 63.914,143.589 63.762,142.910 63.279 C 142.232 62.795,141.400 62.400,141.062 62.400 C 140.724 62.400,140.333 62.215,140.193 61.989 C 140.054 61.764,139.728 61.620,139.470 61.670 C 138.719 61.815,136.001 60.681,135.994 60.220 C 135.991 59.989,135.824 60.058,135.624 60.374 C 135.343 60.818,135.134 60.843,134.699 60.482 C 134.390 60.226,133.791 59.949,133.369 59.868 C 132.542 59.709,131.694 59.409,129.800 58.605 C 129.140 58.325,127.654 57.789,126.497 57.415 C 125.340 57.040,124.495 56.571,124.618 56.371 C 124.741 56.172,124.544 56.123,124.180 56.263 C 123.817 56.402,123.402 56.335,123.260 56.112 C 122.868 55.501,119.735 53.998,119.450 54.284 C 119.312 54.421,119.200 54.323,119.200 54.067 C 119.200 53.810,119.065 53.637,118.900 53.682 C 118.505 53.790,115.667 52.837,114.400 52.171 C 113.850 51.882,112.230 51.147,110.800 50.538 C 107.776 49.249,104.259 47.273,104.066 46.755 C 103.992 46.557,103.767 46.497,103.566 46.621 C 103.365 46.745,103.200 46.646,103.200 46.400 C 103.200 46.154,103.031 46.058,102.823 46.186 C 102.438 46.424,97.507 44.041,97.267 43.500 C 97.193 43.335,96.898 43.200,96.610 43.200 C 95.797 43.200,89.600 39.605,89.600 39.133 C 89.600 38.903,89.330 38.818,89.000 38.945 C 88.670 39.071,88.400 39.024,88.400 38.839 C 88.400 38.484,82.938 35.200,82.347 35.200 C 82.156 35.200,82.000 34.930,82.000 34.600 C 82.000 34.270,81.865 34.021,81.700 34.047 C 80.906 34.173,80.377 33.960,80.597 33.605 C 80.736 33.380,80.580 33.310,80.235 33.442 C 79.585 33.691,77.341 32.300,76.473 31.110 C 76.183 30.712,75.789 30.483,75.597 30.602 C 75.406 30.720,75.094 30.540,74.904 30.201 C 74.151 28.854,72.711 29.102,73.066 30.518 M320.276 57.100 C 320.175 57.485,320.093 57.170,320.093 56.400 C 320.093 55.630,320.175 55.315,320.276 55.700 C 320.376 56.085,320.376 56.715,320.276 57.100 M319.899 74.478 C 319.829 76.965,319.771 75.040,319.770 70.200 C 319.770 65.360,319.828 63.325,319.898 65.678 C 319.969 68.031,319.969 71.991,319.899 74.478 M320.276 84.700 C 320.175 85.085,320.093 84.770,320.093 84.000 C 320.093 83.230,320.175 82.915,320.276 83.300 C 320.376 83.685,320.376 84.315,320.276 84.700 M131.900 112.276 C 131.515 112.376,130.885 112.376,130.500 112.276 C 130.115 112.175,130.430 112.093,131.200 112.093 C 131.970 112.093,132.285 112.175,131.900 112.276 M143.100 112.276 C 142.715 112.376,142.085 112.376,141.700 112.276 C 141.315 112.175,141.630 112.093,142.400 112.093 C 143.170 112.093,143.485 112.175,143.100 112.276 M257.900 112.276 C 257.515 112.376,256.885 112.376,256.500 112.276 C 256.115 112.175,256.430 112.093,257.200 112.093 C 257.970 112.093,258.285 112.175,257.900 112.276 M268.700 112.276 C 268.315 112.376,267.685 112.376,267.300 112.276 C 266.915 112.175,267.230 112.093,268.000 112.093 C 268.770 112.093,269.085 112.175,268.700 112.276 M142.000 113.454 C 142.000 113.773,142.425 114.000,143.024 114.000 C 143.666 114.000,143.946 113.836,143.775 113.560 C 143.611 113.293,143.877 113.324,144.452 113.638 C 144.973 113.922,145.895 114.107,146.500 114.047 C 147.105 113.988,147.600 114.133,147.600 114.370 C 147.600 114.606,147.791 114.800,148.024 114.800 C 148.257 114.800,148.336 114.620,148.200 114.400 C 147.806 113.762,148.650 113.938,149.207 114.609 C 149.499 114.961,150.027 115.118,150.456 114.982 C 150.865 114.852,151.200 114.893,151.201 115.073 C 151.201 115.253,151.696 115.437,152.301 115.482 C 154.128 115.619,154.990 115.787,155.200 116.049 C 155.310 116.186,156.710 116.769,158.311 117.344 C 161.952 118.653,163.685 119.539,163.425 119.959 C 163.315 120.138,163.698 120.194,164.278 120.083 C 165.121 119.922,165.282 120.009,165.086 120.520 C 164.906 120.989,165.013 121.093,165.486 120.912 C 165.950 120.733,166.039 120.813,165.804 121.194 C 165.593 121.534,165.632 121.628,165.911 121.455 C 166.149 121.308,166.453 121.362,166.585 121.576 C 166.717 121.790,167.119 121.852,167.478 121.715 C 167.895 121.555,168.033 121.623,167.860 121.903 C 167.708 122.149,167.944 122.455,168.394 122.598 C 168.837 122.739,169.200 123.052,169.200 123.294 C 169.200 123.535,169.299 123.634,169.420 123.514 C 169.541 123.393,170.368 123.948,171.258 124.747 C 172.148 125.546,173.006 126.200,173.165 126.200 C 173.323 126.200,173.936 126.721,174.526 127.358 C 175.117 127.996,175.600 128.384,175.600 128.222 C 175.600 128.059,176.390 128.888,177.356 130.063 C 178.322 131.238,179.492 132.465,179.956 132.788 C 180.420 133.112,180.800 133.544,180.800 133.748 C 180.800 133.952,181.609 135.101,182.597 136.302 C 183.586 137.503,184.295 138.646,184.174 138.843 C 184.052 139.039,184.233 139.200,184.576 139.200 C 184.919 139.200,185.200 139.402,185.200 139.650 C 185.200 139.897,185.919 141.176,186.798 142.492 C 187.676 143.807,188.296 145.045,188.174 145.242 C 188.052 145.439,188.105 145.600,188.291 145.600 C 188.477 145.600,188.659 145.989,188.695 146.464 C 188.731 146.939,188.904 147.434,189.080 147.564 C 189.256 147.694,189.458 148.070,189.530 148.400 C 189.601 148.730,189.834 149.063,190.047 149.139 C 190.277 149.222,190.245 149.505,189.968 149.839 C 189.712 150.148,189.666 150.400,189.866 150.400 C 190.066 150.400,190.259 150.789,190.295 151.264 C 190.331 151.739,190.572 152.259,190.831 152.419 C 191.090 152.579,191.179 152.911,191.028 153.155 C 190.875 153.402,191.007 153.600,191.325 153.600 C 191.974 153.600,192.492 156.020,192.181 157.600 C 192.013 158.449,192.037 158.479,192.338 157.800 C 193.238 155.764,194.568 168.113,194.189 174.999 C 194.044 177.638,193.858 179.907,193.775 180.041 C 193.692 180.175,193.531 180.986,193.418 181.843 C 193.173 183.701,192.917 185.000,192.600 186.000 C 192.472 186.405,192.286 187.155,192.188 187.668 C 192.090 188.181,191.703 188.825,191.328 189.100 C 190.954 189.375,190.846 189.600,191.089 189.600 C 191.411 189.600,191.410 189.919,191.087 190.775 C 190.843 191.422,190.515 191.871,190.359 191.775 C 190.203 191.678,189.951 192.499,189.800 193.600 C 189.649 194.700,189.404 195.600,189.257 195.600 C 188.963 195.600,187.600 198.564,187.600 199.203 C 187.600 199.421,187.438 199.600,187.239 199.600 C 187.041 199.600,186.685 200.154,186.449 200.830 C 186.164 201.649,185.850 201.964,185.510 201.771 C 185.121 201.551,185.109 201.601,185.460 201.981 C 185.809 202.359,185.780 202.640,185.340 203.140 C 183.268 205.496,181.674 207.796,181.881 208.131 C 182.014 208.347,181.933 208.406,181.701 208.262 C 181.468 208.119,180.945 208.522,180.539 209.158 C 179.658 210.538,176.088 214.397,175.684 214.407 C 175.528 214.410,174.320 215.403,173.000 216.613 C 169.860 219.490,167.228 221.296,166.552 221.037 C 166.253 220.922,166.052 220.996,166.105 221.200 C 166.208 221.604,164.273 222.820,161.900 223.841 C 161.075 224.196,160.400 224.658,160.400 224.867 C 160.400 225.076,160.247 225.152,160.059 225.037 C 159.872 224.921,159.017 225.192,158.159 225.640 C 156.667 226.419,152.058 228.034,150.800 228.218 C 150.470 228.266,148.601 228.597,146.648 228.953 C 142.511 229.706,142.697 229.690,142.948 229.285 C 143.055 229.112,142.660 228.943,142.071 228.911 C 141.136 228.860,141.102 228.896,141.800 229.198 L 142.600 229.544 141.800 229.605 C 141.360 229.639,140.550 229.739,140.000 229.828 C 138.962 229.996,134.944 229.989,133.200 229.816 C 132.650 229.761,130.940 229.593,129.400 229.443 C 127.860 229.293,125.970 228.996,125.200 228.784 C 124.430 228.572,123.350 228.337,122.800 228.261 C 122.250 228.185,121.530 228.007,121.200 227.866 C 120.870 227.725,120.240 227.557,119.800 227.492 C 119.360 227.428,118.100 226.960,117.000 226.452 C 113.655 224.907,111.933 224.245,111.500 224.336 C 111.335 224.371,111.200 224.260,111.200 224.089 C 111.200 223.917,109.850 223.074,108.200 222.213 C 106.550 221.353,105.200 220.492,105.200 220.301 C 105.200 220.109,105.020 220.064,104.800 220.200 C 104.580 220.336,104.400 220.298,104.400 220.115 C 104.400 219.932,103.775 219.445,103.011 219.034 C 102.248 218.623,101.710 218.145,101.817 217.972 C 101.924 217.799,101.649 217.543,101.206 217.402 C 100.763 217.261,100.400 216.974,100.400 216.763 C 100.400 216.553,99.925 216.200,99.345 215.979 C 98.764 215.758,98.403 215.464,98.542 215.325 C 98.839 215.028,97.154 213.756,96.670 213.913 C 96.489 213.972,96.437 213.864,96.554 213.674 C 96.671 213.484,96.059 212.805,95.193 212.165 C 94.327 211.524,93.615 210.777,93.609 210.505 C 93.599 209.966,92.803 208.880,91.131 207.123 C 90.543 206.505,90.160 206.000,90.280 206.000 C 90.400 206.000,90.297 205.758,90.052 205.463 C 89.807 205.168,89.725 204.808,89.870 204.663 C 90.015 204.518,89.814 204.400,89.424 204.400 C 89.000 204.400,88.796 204.187,88.917 203.871 C 89.029 203.581,88.763 203.120,88.327 202.847 C 87.866 202.559,87.629 202.101,87.762 201.755 C 87.888 201.427,87.827 201.260,87.626 201.384 C 87.425 201.508,86.440 199.943,85.438 197.905 C 84.304 195.601,83.786 194.142,84.068 194.046 C 84.317 193.962,84.089 193.653,83.561 193.361 C 83.032 193.068,82.836 192.822,83.124 192.814 C 83.412 192.806,83.534 192.617,83.396 192.393 C 83.258 192.170,83.007 192.072,82.839 192.176 C 82.671 192.280,82.533 191.817,82.533 191.147 C 82.533 190.478,82.278 189.768,81.967 189.571 C 81.500 189.275,81.496 189.211,81.949 189.206 C 82.392 189.201,82.401 189.084,82.000 188.600 C 81.726 188.270,81.659 187.997,81.851 187.994 C 82.043 187.991,81.984 187.851,81.720 187.683 C 81.457 187.515,81.166 186.753,81.074 185.989 C 80.982 185.225,80.818 184.330,80.710 184.000 C 80.014 181.880,79.629 180.377,79.377 178.800 C 78.782 175.072,79.173 163.021,79.929 161.800 C 80.065 161.580,80.198 161.002,80.226 160.516 C 80.253 160.031,80.516 159.342,80.812 158.986 C 81.263 158.442,81.257 158.281,80.774 157.976 C 80.376 157.723,80.353 157.610,80.700 157.606 C 80.975 157.603,81.200 157.161,81.200 156.624 C 81.200 156.087,81.372 155.541,81.583 155.411 C 81.793 155.281,81.864 154.910,81.740 154.587 C 81.616 154.264,81.724 154.000,81.981 154.000 C 82.237 154.000,82.324 153.800,82.172 153.555 C 82.021 153.311,82.146 152.953,82.449 152.761 C 82.905 152.472,82.897 152.410,82.400 152.400 C 81.960 152.391,81.931 152.305,82.290 152.077 C 82.559 151.905,82.845 151.413,82.924 150.983 C 83.004 150.552,83.410 149.390,83.826 148.400 C 84.243 147.410,84.542 146.465,84.492 146.300 C 84.441 146.135,84.580 146.000,84.800 146.000 C 85.020 146.000,85.171 145.865,85.135 145.700 C 84.947 144.823,87.299 141.032,87.751 141.485 C 87.911 141.645,87.924 141.466,87.778 141.088 C 87.625 140.688,87.703 140.400,87.966 140.400 C 88.214 140.400,88.632 139.905,88.895 139.300 C 90.359 135.931,96.217 129.408,101.381 125.398 C 102.583 124.464,103.439 123.573,103.284 123.417 C 103.128 123.261,103.180 123.170,103.400 123.214 C 104.163 123.368,104.653 123.197,105.445 122.500 C 106.685 121.409,107.995 120.750,108.412 121.007 C 108.620 121.136,108.702 121.007,108.594 120.721 C 108.466 120.384,109.243 119.847,110.796 119.200 C 112.117 118.650,113.197 118.095,113.198 117.967 C 113.199 117.838,113.425 117.729,113.700 117.724 C 113.975 117.719,114.920 117.393,115.800 116.999 C 116.680 116.605,117.580 116.229,117.800 116.165 C 119.184 115.757,120.306 115.500,121.020 115.428 C 121.471 115.383,122.040 115.222,122.284 115.072 C 122.528 114.921,123.014 114.907,123.364 115.041 C 123.723 115.179,124.000 115.081,124.000 114.816 C 124.000 114.538,124.307 114.444,124.753 114.585 C 125.241 114.740,125.594 114.593,125.757 114.167 C 125.973 113.604,126.106 113.588,126.682 114.055 C 127.144 114.430,127.260 114.444,127.053 114.100 C 126.888 113.825,126.943 113.600,127.176 113.600 C 127.409 113.600,127.600 113.814,127.600 114.076 C 127.600 114.339,127.843 114.221,128.139 113.816 C 128.512 113.305,128.765 113.220,128.963 113.539 C 129.332 114.136,131.069 114.136,131.438 113.538 C 131.627 113.233,131.546 113.186,131.200 113.400 C 130.886 113.594,130.774 113.566,130.920 113.330 C 131.327 112.671,142.000 112.790,142.000 113.454 M267.600 113.391 C 267.600 113.874,267.970 114.021,269.100 113.984 C 269.925 113.958,271.033 114.069,271.563 114.231 C 272.207 114.429,272.438 114.385,272.261 114.098 C 272.109 113.853,272.268 113.710,272.630 113.763 C 272.979 113.814,273.399 114.075,273.564 114.342 C 273.729 114.609,274.165 114.712,274.532 114.571 C 274.899 114.430,275.200 114.499,275.200 114.724 C 275.200 114.949,275.809 115.085,276.554 115.026 C 277.375 114.961,279.206 115.442,281.208 116.250 C 283.022 116.982,284.648 117.494,284.819 117.388 C 284.991 117.282,285.195 117.386,285.273 117.619 C 285.351 117.853,285.681 118.090,286.007 118.146 C 287.371 118.381,290.816 120.450,290.553 120.876 C 290.384 121.149,290.457 121.212,290.741 121.037 C 290.996 120.879,291.720 121.115,292.348 121.563 C 292.976 122.010,293.634 122.247,293.809 122.088 C 293.985 121.930,294.015 121.999,293.877 122.242 C 293.660 122.621,294.749 123.392,295.707 123.539 C 296.081 123.596,296.990 124.385,300.500 127.698 C 301.985 129.100,303.200 130.188,303.200 130.116 C 303.200 130.045,303.695 130.551,304.300 131.240 C 304.905 131.930,305.982 133.106,306.693 133.854 C 307.405 134.602,307.996 135.345,308.008 135.507 C 308.020 135.668,308.365 136.185,308.774 136.656 C 309.183 137.127,309.640 137.894,309.788 138.362 C 309.936 138.829,310.223 139.110,310.424 138.985 C 310.626 138.860,310.689 139.024,310.564 139.348 C 310.440 139.673,310.719 140.319,311.184 140.784 C 311.649 141.249,311.919 141.807,311.785 142.025 C 311.650 142.242,311.766 142.370,312.042 142.310 C 312.318 142.249,312.955 142.965,313.456 143.900 C 313.958 144.835,314.288 145.600,314.189 145.600 C 314.091 145.600,314.477 146.635,315.047 147.900 C 315.617 149.165,316.265 150.830,316.487 151.600 C 316.708 152.370,317.094 153.132,317.345 153.294 C 317.666 153.502,317.646 153.590,317.276 153.594 C 316.958 153.598,316.875 153.796,317.065 154.100 C 317.237 154.375,317.417 154.870,317.466 155.200 C 317.796 157.452,318.144 158.648,318.729 159.543 C 319.104 160.117,319.180 160.433,318.900 160.261 C 318.200 159.829,318.275 160.618,319.003 161.346 C 319.377 161.720,319.453 162.044,319.203 162.198 C 318.623 162.556,318.706 163.600,319.314 163.600 C 319.944 163.600,319.967 163.861,320.013 171.697 C 320.044 177.048,319.943 178.173,319.341 179.193 C 318.813 180.085,318.748 180.508,319.085 180.845 C 319.596 181.356,319.311 182.516,318.758 182.174 C 318.287 181.883,318.304 182.274,318.803 183.205 C 319.109 183.777,319.050 184.044,318.559 184.319 C 318.203 184.518,317.862 185.293,317.800 186.040 C 317.738 186.788,317.668 187.445,317.644 187.500 C 317.620 187.555,317.585 187.735,317.566 187.900 C 317.547 188.065,317.345 188.425,317.117 188.700 C 316.889 188.975,316.801 189.200,316.923 189.200 C 317.909 189.200,312.545 201.416,311.358 201.871 C 311.054 201.988,310.905 202.246,311.028 202.445 C 311.150 202.643,310.970 202.913,310.628 203.045 C 310.285 203.176,310.092 203.425,310.198 203.597 C 310.304 203.769,310.134 204.123,309.819 204.384 C 309.505 204.645,309.357 205.145,309.492 205.495 C 309.654 205.917,309.578 206.034,309.268 205.842 C 309.001 205.677,308.800 205.779,308.800 206.080 C 308.800 206.370,308.422 206.843,307.961 207.131 C 307.500 207.420,307.206 207.739,307.308 207.841 C 307.658 208.191,303.866 212.208,299.985 215.600 C 298.852 216.590,297.549 217.805,297.090 218.300 C 296.631 218.795,296.013 219.200,295.715 219.200 C 295.418 219.200,295.072 219.469,294.946 219.798 C 294.819 220.126,294.555 220.296,294.358 220.174 C 294.161 220.052,294.000 220.105,294.000 220.290 C 294.000 220.586,291.732 222.141,291.200 222.210 C 290.846 222.256,287.407 224.099,287.200 224.354 C 287.090 224.489,286.730 224.650,286.400 224.711 C 285.774 224.828,284.336 225.416,283.047 226.083 C 281.944 226.654,279.152 227.634,278.000 227.855 C 277.450 227.960,276.280 228.232,275.400 228.459 C 269.970 229.859,254.056 230.482,257.411 229.163 C 258.070 228.903,258.024 228.862,257.129 228.911 C 256.540 228.943,256.152 229.123,256.268 229.310 C 256.959 230.428,243.937 227.226,240.629 225.464 C 239.984 225.122,239.309 224.932,239.129 225.044 C 238.948 225.156,238.800 225.084,238.800 224.884 C 238.800 224.685,238.035 224.190,237.100 223.786 C 236.165 223.381,235.085 222.786,234.700 222.463 C 234.315 222.140,234.000 222.016,234.000 222.187 C 234.000 222.358,233.732 222.276,233.404 222.004 C 233.077 221.732,232.931 221.305,233.081 221.055 C 233.231 220.805,233.049 220.847,232.677 221.149 C 232.236 221.507,232.000 221.542,232.000 221.249 C 232.000 221.002,231.730 220.800,231.400 220.800 C 231.070 220.800,230.800 220.632,230.800 220.427 C 230.800 220.222,230.485 219.953,230.100 219.830 C 229.715 219.706,228.238 218.532,226.817 217.219 C 225.396 215.907,224.174 214.892,224.101 214.965 C 223.655 215.411,216.400 206.654,216.400 205.670 C 216.400 205.437,216.192 205.119,215.938 204.962 C 215.632 204.772,215.579 204.865,215.782 205.238 C 215.950 205.547,215.628 205.260,215.066 204.600 C 214.504 203.940,213.719 202.770,213.322 202.000 C 212.925 201.230,212.420 200.468,212.200 200.306 C 211.980 200.144,211.929 200.009,212.086 200.006 C 212.244 200.003,211.942 199.151,211.416 198.113 C 210.890 197.076,210.550 196.081,210.660 195.903 C 210.770 195.726,210.621 195.630,210.330 195.690 C 210.004 195.758,209.818 195.453,209.848 194.900 C 209.874 194.405,209.720 194.000,209.505 194.000 C 209.290 194.000,209.218 193.730,209.345 193.400 C 209.492 193.015,209.329 192.789,208.887 192.768 C 208.470 192.749,208.397 192.658,208.700 192.535 C 209.438 192.237,209.307 191.605,208.500 191.568 C 208.082 191.550,208.001 191.456,208.300 191.335 C 208.575 191.224,208.800 190.958,208.800 190.743 C 208.800 190.528,208.641 190.451,208.446 190.571 C 207.948 190.880,206.744 187.478,206.156 184.100 C 206.070 183.605,205.925 182.768,205.834 182.241 C 205.026 177.576,204.803 167.584,205.414 163.400 C 205.606 162.080,205.782 160.820,205.805 160.600 C 206.001 158.670,207.857 152.400,208.232 152.400 C 208.493 152.400,208.809 151.995,208.933 151.500 C 209.152 150.631,209.140 150.627,208.580 151.376 C 208.261 151.804,208.000 151.949,208.000 151.699 C 208.000 151.450,208.380 150.980,208.843 150.655 C 209.307 150.330,209.567 149.870,209.420 149.632 C 209.273 149.394,209.343 149.200,209.576 149.200 C 209.809 149.200,209.976 149.065,209.946 148.900 C 209.839 148.297,210.513 145.977,210.858 145.764 C 211.053 145.643,211.109 145.377,210.983 145.172 C 210.856 144.968,210.954 144.800,211.200 144.800 C 211.446 144.800,211.545 144.635,211.421 144.434 C 211.297 144.233,211.386 144.005,211.619 143.927 C 211.853 143.849,212.087 143.519,212.139 143.193 C 212.298 142.208,215.277 138.000,215.651 138.232 C 215.843 138.350,216.000 138.257,216.000 138.024 C 216.000 137.791,215.794 137.600,215.542 137.600 C 215.289 137.600,215.514 137.179,216.042 136.665 C 216.569 136.151,217.720 134.865,218.600 133.808 C 219.480 132.750,220.484 131.596,220.831 131.242 C 221.178 130.889,221.964 129.925,222.578 129.100 C 223.192 128.275,223.899 127.599,224.147 127.598 C 224.396 127.597,225.146 127.084,225.814 126.458 C 226.482 125.832,227.432 125.104,227.925 124.840 C 228.420 124.575,228.700 124.162,228.549 123.918 C 228.385 123.652,228.460 123.590,228.738 123.762 C 228.992 123.919,229.200 123.846,229.200 123.600 C 229.200 123.354,229.381 123.265,229.603 123.402 C 229.824 123.539,230.113 123.370,230.245 123.028 C 230.376 122.685,230.622 122.490,230.792 122.595 C 230.961 122.699,231.566 122.352,232.137 121.824 C 233.250 120.792,234.666 120.178,235.540 120.348 C 235.878 120.414,235.966 120.268,235.775 119.959 C 235.559 119.611,235.672 119.542,236.155 119.727 C 236.533 119.872,236.752 119.846,236.643 119.669 C 236.480 119.406,238.475 117.927,239.200 117.773 C 239.310 117.750,239.670 117.630,240.000 117.507 C 243.628 116.156,246.987 115.186,247.440 115.360 C 247.748 115.478,248.000 115.403,248.000 115.192 C 248.000 114.982,248.405 114.852,248.900 114.905 C 249.459 114.964,249.760 114.804,249.694 114.483 C 249.611 114.078,249.772 114.064,250.437 114.420 C 251.084 114.766,251.395 114.756,251.743 114.378 C 252.099 113.992,252.023 113.945,251.400 114.165 C 250.843 114.362,250.726 114.320,251.016 114.028 C 251.290 113.752,251.871 113.733,252.711 113.974 C 253.419 114.178,254.084 114.188,254.202 113.997 C 254.319 113.808,255.064 113.758,255.858 113.887 C 256.904 114.057,257.392 113.957,257.634 113.525 C 258.151 112.602,267.600 112.474,267.600 113.391 M131.795 151.938 C 131.658 152.076,131.039 152.214,130.422 152.245 C 129.804 152.276,128.916 152.684,128.449 153.151 C 127.982 153.618,127.309 154.000,126.954 154.000 C 126.378 154.000,122.508 155.876,122.000 156.401 C 121.890 156.514,121.021 157.112,120.070 157.730 C 117.194 159.594,114.151 163.338,111.990 167.669 C 111.127 169.397,110.417 170.898,110.411 171.005 C 110.405 171.112,110.386 171.245,110.369 171.300 C 110.353 171.355,110.274 171.670,110.196 172.000 C 110.117 172.330,109.893 173.140,109.698 173.800 C 109.503 174.460,109.356 175.765,109.372 176.700 C 109.387 177.635,109.240 178.400,109.045 178.400 C 108.594 178.400,109.127 185.230,109.625 185.830 C 109.827 186.074,109.885 186.382,109.752 186.514 C 109.512 186.755,111.194 192.022,111.631 192.400 C 111.759 192.510,112.368 193.537,112.986 194.683 C 113.603 195.828,114.444 197.126,114.854 197.566 C 115.264 198.006,115.600 198.518,115.600 198.702 C 115.600 199.167,118.255 201.656,120.287 203.097 C 121.214 203.755,121.859 204.408,121.720 204.547 C 121.581 204.686,121.744 204.800,122.083 204.800 C 122.422 204.800,123.497 205.246,124.472 205.791 C 125.446 206.335,126.594 206.848,127.022 206.931 C 127.450 207.013,128.070 207.187,128.400 207.318 C 131.525 208.559,139.501 208.807,143.200 207.779 C 144.410 207.442,145.760 207.087,146.200 206.989 C 147.646 206.667,149.200 205.910,149.200 205.528 C 149.200 205.322,149.368 205.256,149.572 205.383 C 149.777 205.509,150.060 205.427,150.200 205.200 C 150.340 204.973,150.610 204.883,150.799 204.999 C 150.988 205.116,151.258 204.846,151.400 204.400 C 151.542 203.954,151.803 203.678,151.980 203.788 C 152.158 203.898,152.767 203.524,153.333 202.958 C 153.899 202.392,154.555 202.048,154.791 202.194 C 155.027 202.340,155.170 202.303,155.110 202.111 C 155.049 201.919,155.970 200.667,157.155 199.329 C 158.340 197.992,159.271 196.747,159.225 196.564 C 159.179 196.381,159.437 196.127,159.800 196.000 C 160.163 195.873,160.402 195.686,160.333 195.584 C 160.264 195.483,160.676 194.590,161.249 193.600 C 162.266 191.846,163.194 189.415,163.464 187.800 C 163.538 187.360,163.731 186.280,163.893 185.400 C 164.536 181.913,164.078 173.130,163.208 172.251 C 163.018 172.059,162.958 171.654,163.074 171.351 C 163.190 171.048,163.086 170.800,162.843 170.800 C 162.599 170.800,162.400 170.386,162.400 169.880 C 162.400 169.374,162.175 168.735,161.900 168.460 C 161.625 168.185,161.385 167.834,161.367 167.680 C 161.230 166.502,160.628 165.200,160.221 165.200 C 159.950 165.200,159.536 164.795,159.302 164.300 C 158.110 161.785,153.922 157.611,151.178 156.203 C 149.980 155.589,148.514 154.833,147.921 154.524 C 147.327 154.215,146.427 153.883,145.921 153.786 C 145.414 153.689,144.820 153.366,144.600 153.070 C 144.380 152.773,143.975 152.606,143.700 152.698 C 143.425 152.791,143.197 152.627,143.194 152.333 C 143.189 151.890,143.131 151.890,142.849 152.334 C 142.428 152.998,141.980 153.016,141.589 152.383 C 141.179 151.719,135.913 151.498,135.513 152.128 C 135.295 152.470,135.211 152.449,135.206 152.051 C 135.201 151.608,135.084 151.599,134.600 152.000 C 134.270 152.274,134.000 152.341,134.000 152.149 C 133.999 151.743,132.166 151.568,131.795 151.938 M259.200 152.051 C 259.200 152.196,258.921 152.422,258.579 152.553 C 258.223 152.689,258.063 152.622,258.203 152.395 C 258.337 152.178,258.257 152.000,258.024 152.000 C 257.791 152.000,257.600 152.306,257.600 152.680 C 257.600 153.209,257.493 153.253,257.120 152.880 C 256.524 152.284,255.967 152.256,256.100 152.830 C 256.155 153.066,255.105 153.663,253.766 154.156 C 248.654 156.037,244.071 159.862,240.903 164.890 C 240.248 165.929,239.627 166.694,239.523 166.590 C 239.419 166.485,239.303 166.670,239.267 167.000 C 239.230 167.330,239.170 167.870,239.133 168.200 C 239.097 168.530,238.865 168.800,238.618 168.800 C 238.372 168.800,238.135 169.115,238.091 169.500 C 237.994 170.360,237.792 171.210,237.497 172.000 C 235.889 176.300,236.241 185.958,238.172 190.498 C 238.522 191.322,238.818 192.132,238.829 192.298 C 238.840 192.464,239.199 192.973,239.628 193.430 C 240.057 193.886,240.286 194.381,240.137 194.530 C 239.988 194.678,240.122 194.803,240.433 194.806 C 240.912 194.811,240.914 194.867,240.447 195.162 C 240.013 195.437,240.079 195.571,240.753 195.785 C 241.225 195.935,241.508 196.226,241.380 196.432 C 241.253 196.637,241.430 196.913,241.772 197.045 C 242.115 197.176,242.313 197.417,242.212 197.580 C 242.112 197.743,242.795 198.584,243.731 199.450 C 244.666 200.316,245.694 201.384,246.016 201.823 C 247.160 203.389,252.881 206.645,255.800 207.392 C 258.464 208.074,259.191 208.151,263.922 208.248 C 267.344 208.319,269.326 208.179,270.427 207.790 C 271.298 207.483,272.054 207.244,272.106 207.258 C 272.564 207.387,275.600 206.281,275.600 205.985 C 275.600 205.773,275.735 205.629,275.900 205.665 C 276.065 205.700,276.650 205.542,277.200 205.313 C 277.750 205.083,278.364 204.890,278.564 204.884 C 278.764 204.877,279.088 204.586,279.284 204.236 C 279.480 203.886,279.782 203.600,279.956 203.600 C 280.482 203.600,284.800 199.389,284.800 198.877 C 284.800 198.614,284.962 198.400,285.161 198.400 C 285.701 198.400,288.605 193.884,288.467 193.260 C 288.400 192.962,288.538 192.838,288.773 192.983 C 289.008 193.129,289.200 192.967,289.200 192.624 C 289.200 192.281,289.202 191.911,289.205 191.803 C 289.208 191.695,289.577 190.953,290.025 190.156 C 290.473 189.358,290.748 188.614,290.636 188.502 C 290.524 188.390,290.698 187.783,291.024 187.153 C 291.350 186.524,291.613 185.916,291.608 185.804 C 291.554 184.452,291.666 183.994,292.000 184.200 C 292.220 184.336,292.400 184.257,292.400 184.024 C 292.400 183.791,292.254 183.600,292.075 183.600 C 291.896 183.600,291.747 182.295,291.743 180.700 C 291.734 177.073,291.342 173.813,290.793 172.787 C 290.561 172.354,290.473 172.000,290.596 172.000 C 290.720 172.000,290.541 171.460,290.200 170.800 C 289.859 170.140,289.671 169.600,289.783 169.600 C 289.895 169.600,289.612 168.880,289.153 168.000 C 288.695 167.120,288.127 166.400,287.893 166.400 C 287.658 166.400,287.581 166.285,287.722 166.145 C 288.065 165.801,286.594 163.661,284.270 161.124 C 283.728 160.533,283.393 159.940,283.525 159.808 C 283.657 159.676,283.370 159.465,282.887 159.339 C 282.404 159.212,282.086 158.984,282.180 158.832 C 282.366 158.532,278.846 156.106,277.949 155.916 C 277.647 155.852,277.310 155.698,277.200 155.572 C 276.980 155.322,273.810 153.834,272.700 153.461 C 272.315 153.331,272.000 153.039,272.000 152.813 C 272.000 152.586,271.809 152.400,271.576 152.400 C 271.343 152.400,271.267 152.625,271.406 152.900 C 271.545 153.175,271.385 153.062,271.049 152.650 C 270.713 152.237,270.182 151.998,269.868 152.119 C 269.554 152.239,269.125 152.165,268.914 151.954 C 268.669 151.709,268.160 151.711,267.506 151.960 C 266.943 152.174,266.359 152.225,266.208 152.074 C 265.856 151.723,259.200 151.701,259.200 152.051 M332.800 152.800 C 332.800 153.460,332.620 154.000,332.400 154.000 C 331.955 154.000,331.848 152.285,332.267 151.867 C 332.719 151.415,332.800 151.557,332.800 152.800 M320.676 164.300 C 320.575 164.685,320.493 164.370,320.493 163.600 C 320.493 162.830,320.575 162.515,320.676 162.900 C 320.776 163.285,320.776 163.915,320.676 164.300 M64.101 164.200 C 64.105 165.080,64.187 165.393,64.283 164.895 C 64.379 164.398,64.375 163.678,64.275 163.295 C 64.175 162.913,64.096 163.320,64.101 164.200 M332.800 165.824 C 332.800 166.141,332.620 166.400,332.400 166.400 C 332.180 166.400,332.000 166.029,332.000 165.576 C 332.000 165.123,332.180 164.864,332.400 165.000 C 332.620 165.136,332.800 165.507,332.800 165.824 M195.600 165.800 C 195.600 166.130,195.420 166.400,195.200 166.400 C 194.980 166.400,194.800 166.130,194.800 165.800 C 194.800 165.470,194.980 165.200,195.200 165.200 C 195.420 165.200,195.600 165.470,195.600 165.800 M78.290 169.293 C 78.201 170.012,78.126 169.520,78.124 168.200 C 78.122 166.880,78.195 166.292,78.286 166.893 C 78.377 167.494,78.379 168.574,78.290 169.293 M321.083 168.095 C 320.987 168.593,320.905 168.280,320.901 167.400 C 320.896 166.520,320.975 166.113,321.075 166.495 C 321.175 166.878,321.179 167.598,321.083 168.095 M79.709 171.600 C 79.709 172.590,79.787 172.995,79.882 172.500 C 79.978 172.005,79.978 171.195,79.882 170.700 C 79.787 170.205,79.709 170.610,79.709 171.600 M78.282 176.100 C 78.187 176.595,78.109 176.190,78.109 175.200 C 78.109 174.210,78.187 173.805,78.282 174.300 C 78.378 174.795,78.378 175.605,78.282 176.100 M321.083 176.095 C 320.987 176.593,320.905 176.280,320.901 175.400 C 320.896 174.520,320.975 174.113,321.075 174.495 C 321.175 174.878,321.179 175.598,321.083 176.095 M195.600 177.224 C 195.600 177.677,195.420 177.936,195.200 177.800 C 194.980 177.664,194.800 177.293,194.800 176.976 C 194.800 176.659,194.980 176.400,195.200 176.400 C 195.420 176.400,195.600 176.771,195.600 177.224 M110.287 181.500 C 110.195 182.105,110.120 181.610,110.120 180.400 C 110.120 179.190,110.195 178.695,110.287 179.300 C 110.378 179.905,110.378 180.895,110.287 181.500 M201.100 201.118 C 201.815 202.602,202.400 204.024,202.400 204.279 C 202.400 204.534,202.627 204.981,202.905 205.271 C 203.514 205.910,204.567 208.082,204.470 208.500 C 204.431 208.665,204.625 208.755,204.900 208.700 C 205.175 208.645,205.400 208.870,205.400 209.200 C 205.400 209.530,205.805 210.181,206.300 210.646 C 206.795 211.111,207.200 211.679,207.200 211.909 C 207.200 212.330,208.624 214.072,211.209 216.816 C 211.984 217.639,212.866 218.776,213.169 219.343 C 213.473 219.910,214.369 220.803,215.161 221.327 C 215.952 221.851,217.257 222.937,218.060 223.740 C 218.863 224.543,219.737 225.200,220.003 225.200 C 220.275 225.200,220.382 225.471,220.247 225.821 C 220.116 226.162,220.167 226.344,220.359 226.225 C 220.552 226.106,220.932 226.277,221.204 226.604 C 221.476 226.932,221.976 227.200,222.316 227.200 C 222.655 227.200,222.818 227.316,222.677 227.457 C 222.535 227.598,223.254 228.158,224.273 228.700 C 225.293 229.243,226.500 230.034,226.955 230.459 C 227.411 230.884,228.193 231.334,228.692 231.459 C 229.191 231.584,229.600 231.937,229.600 232.243 C 229.600 232.550,229.735 232.779,229.900 232.753 C 230.819 232.608,232.000 232.852,232.000 233.187 C 232.000 233.401,231.700 233.460,231.334 233.319 C 230.899 233.152,230.765 233.220,230.947 233.514 C 231.106 233.772,230.750 234.268,230.113 234.673 C 229.501 235.063,228.868 235.566,228.706 235.791 C 228.517 236.054,228.410 236.029,228.406 235.719 C 228.403 235.455,227.908 235.694,227.306 236.252 C 226.705 236.809,225.715 237.560,225.106 237.919 C 224.498 238.278,224.000 238.694,224.000 238.843 C 224.000 238.992,223.595 239.215,223.100 239.340 C 222.605 239.465,221.406 240.287,220.435 241.167 C 219.464 242.047,218.514 242.671,218.325 242.553 C 218.135 242.436,218.030 242.506,218.090 242.709 C 218.214 243.126,215.724 245.591,215.453 245.319 C 215.356 245.223,214.358 246.012,213.235 247.072 C 212.111 248.132,210.284 249.810,209.175 250.800 C 205.748 253.857,201.377 258.145,200.510 259.300 L 199.685 260.400 196.665 257.400 C 195.004 255.750,193.444 254.400,193.199 254.400 C 192.954 254.400,192.864 254.220,193.000 254.000 C 193.136 253.780,193.006 253.600,192.711 253.600 C 192.416 253.600,190.776 252.250,189.066 250.600 C 187.356 248.950,185.853 247.600,185.725 247.600 C 185.598 247.600,185.203 247.285,184.847 246.900 C 184.491 246.515,183.389 245.587,182.400 244.837 C 181.410 244.088,180.240 243.138,179.800 242.727 C 177.859 240.911,176.867 240.149,175.481 239.409 C 174.667 238.974,174.000 238.479,174.000 238.309 C 174.000 238.139,173.730 238.000,173.400 238.000 C 173.070 238.000,172.799 237.865,172.797 237.700 C 172.795 237.405,170.481 235.946,170.282 236.114 C 170.226 236.161,169.915 235.973,169.590 235.696 C 169.266 235.418,168.474 234.796,167.831 234.312 L 166.662 233.434 167.831 232.956 C 168.474 232.693,169.135 232.561,169.300 232.662 C 169.465 232.764,169.600 232.586,169.600 232.267 C 169.600 231.948,170.005 231.582,170.500 231.453 C 170.995 231.325,172.019 230.686,172.776 230.033 C 173.532 229.380,174.285 228.929,174.448 229.030 C 174.612 229.131,174.999 228.852,175.309 228.409 C 175.618 227.967,175.991 227.724,176.136 227.869 C 176.281 228.014,176.400 227.944,176.400 227.713 C 176.400 227.482,176.778 227.194,177.240 227.074 C 177.702 226.953,177.968 226.671,177.830 226.448 C 177.681 226.208,177.915 226.107,178.400 226.200 C 178.852 226.287,179.135 226.219,179.030 226.049 C 178.925 225.879,179.505 225.181,180.320 224.498 C 181.134 223.815,182.396 222.704,183.125 222.028 C 183.853 221.353,184.629 220.800,184.848 220.800 C 185.068 220.800,185.143 220.631,185.015 220.425 C 184.888 220.218,185.033 219.903,185.339 219.725 C 186.092 219.285,191.628 212.695,191.419 212.486 C 191.328 212.395,191.737 211.828,192.327 211.227 C 194.135 209.384,194.835 208.380,194.588 207.981 C 194.459 207.772,194.502 207.600,194.685 207.600 C 195.083 207.600,196.643 204.782,196.500 204.322 C 196.445 204.145,196.580 204.000,196.800 204.000 C 197.020 204.000,197.174 203.865,197.143 203.700 C 197.066 203.294,199.335 198.397,199.594 198.410 C 199.708 198.416,200.385 199.634,201.100 201.118 M135.905 229.483 C 136.402 229.579,137.122 229.575,137.505 229.475 C 137.887 229.375,137.480 229.296,136.600 229.301 C 135.720 229.305,135.407 229.387,135.905 229.483 M261.500 229.482 C 261.995 229.578,262.805 229.578,263.300 229.482 C 263.795 229.387,263.390 229.309,262.400 229.309 C 261.410 229.309,261.005 229.387,261.500 229.482 M319.701 233.400 C 319.705 234.280,319.787 234.593,319.883 234.095 C 319.979 233.598,319.975 232.878,319.875 232.495 C 319.775 232.113,319.696 232.520,319.701 233.400 M321.887 238.695 C 321.795 239.303,321.717 238.900,321.714 237.800 C 321.711 236.700,321.787 236.203,321.882 236.695 C 321.977 237.186,321.979 238.086,321.887 238.695 M321.882 247.700 C 321.787 248.195,321.709 247.790,321.709 246.800 C 321.709 245.810,321.787 245.405,321.882 245.900 C 321.978 246.395,321.978 247.205,321.882 247.700 M79.701 250.600 C 79.705 251.480,79.787 251.793,79.883 251.295 C 79.979 250.798,79.975 250.078,79.875 249.695 C 79.775 249.313,79.696 249.720,79.701 250.600 M319.693 250.800 C 319.693 251.570,319.775 251.885,319.876 251.500 C 319.976 251.115,319.976 250.485,319.876 250.100 C 319.775 249.715,319.693 250.030,319.693 250.800 M4.400 303.224 C 4.400 303.677,4.220 303.936,4.000 303.800 C 3.780 303.664,3.600 303.293,3.600 302.976 C 3.600 302.659,3.780 302.400,4.000 302.400 C 4.220 302.400,4.400 302.771,4.400 303.224 M3.948 311.591 C 3.956 313.783,3.791 315.682,3.581 315.812 C 3.348 315.956,3.200 314.315,3.200 311.600 C 3.200 309.005,3.353 307.247,3.567 307.380 C 3.769 307.504,3.940 309.400,3.948 311.591 M396.322 311.900 C 396.349 313.769,396.252 314.354,396.009 313.800 C 395.456 312.545,395.584 309.200,396.185 309.200 C 396.239 309.200,396.301 310.415,396.322 311.900 M4.235 320.698 C 3.798 321.135,3.499 320.440,3.812 319.717 C 4.110 319.032,4.132 319.033,4.297 319.731 C 4.393 320.134,4.365 320.569,4.235 320.698 M148.900 385.500 C 126.405 385.557,89.595 385.557,67.100 385.500 C 44.605 385.443,63.010 385.396,108.000 385.396 C 152.990 385.396,171.395 385.443,148.900 385.500 M332.932 385.500 C 310.674 385.557,274.134 385.557,251.732 385.500 C 229.329 385.443,247.540 385.396,292.200 385.396 C 336.860 385.396,355.189 385.443,332.932 385.500 M67.100 387.100 C 89.595 387.157,126.405 387.157,148.900 387.100 C 171.395 387.043,152.990 386.996,108.000 386.996 C 63.010 386.996,44.605 387.043,67.100 387.100 M250.700 387.100 C 273.195 387.157,310.005 387.157,332.500 387.100 C 354.995 387.043,336.590 386.996,291.600 386.996 C 246.610 386.996,228.205 387.043,250.700 387.100 " stroke="none" fill="#00bbd4" fill-rule="evenodd"></path><path id="path1" d="M320.093 56.400 C 320.093 57.170,320.175 57.485,320.276 57.100 C 320.376 56.715,320.376 56.085,320.276 55.700 C 320.175 55.315,320.093 55.630,320.093 56.400 M319.770 70.200 C 319.771 75.040,319.829 76.965,319.899 74.478 C 319.969 71.991,319.969 68.031,319.898 65.678 C 319.828 63.325,319.770 65.360,319.770 70.200 M320.093 84.000 C 320.093 84.770,320.175 85.085,320.276 84.700 C 320.376 84.315,320.376 83.685,320.276 83.300 C 320.175 82.915,320.093 83.230,320.093 84.000 M130.500 112.276 C 130.885 112.376,131.515 112.376,131.900 112.276 C 132.285 112.175,131.970 112.093,131.200 112.093 C 130.430 112.093,130.115 112.175,130.500 112.276 M141.700 112.276 C 142.085 112.376,142.715 112.376,143.100 112.276 C 143.485 112.175,143.170 112.093,142.400 112.093 C 141.630 112.093,141.315 112.175,141.700 112.276 M256.500 112.276 C 256.885 112.376,257.515 112.376,257.900 112.276 C 258.285 112.175,257.970 112.093,257.200 112.093 C 256.430 112.093,256.115 112.175,256.500 112.276 M267.300 112.276 C 267.685 112.376,268.315 112.376,268.700 112.276 C 269.085 112.175,268.770 112.093,268.000 112.093 C 267.230 112.093,266.915 112.175,267.300 112.276 M332.267 151.867 C 331.848 152.285,331.955 154.000,332.400 154.000 C 332.620 154.000,332.800 153.460,332.800 152.800 C 332.800 151.557,332.719 151.415,332.267 151.867 M63.748 156.400 C 63.748 158.710,63.814 159.655,63.895 158.500 C 63.976 157.345,63.976 155.455,63.895 154.300 C 63.814 153.145,63.748 154.090,63.748 156.400 M320.493 163.600 C 320.493 164.370,320.575 164.685,320.676 164.300 C 320.776 163.915,320.776 163.285,320.676 162.900 C 320.575 162.515,320.493 162.830,320.493 163.600 M332.000 165.576 C 332.000 166.029,332.180 166.400,332.400 166.400 C 332.620 166.400,332.800 166.141,332.800 165.824 C 332.800 165.507,332.620 165.136,332.400 165.000 C 332.180 164.864,332.000 165.123,332.000 165.576 M194.800 165.800 C 194.800 166.130,194.980 166.400,195.200 166.400 C 195.420 166.400,195.600 166.130,195.600 165.800 C 195.600 165.470,195.420 165.200,195.200 165.200 C 194.980 165.200,194.800 165.470,194.800 165.800 M78.124 168.200 C 78.126 169.520,78.201 170.012,78.290 169.293 C 78.379 168.574,78.377 167.494,78.286 166.893 C 78.195 166.292,78.122 166.880,78.124 168.200 M320.901 167.400 C 320.905 168.280,320.987 168.593,321.083 168.095 C 321.179 167.598,321.175 166.878,321.075 166.495 C 320.975 166.113,320.896 166.520,320.901 167.400 M78.109 175.200 C 78.109 176.190,78.187 176.595,78.282 176.100 C 78.378 175.605,78.378 174.795,78.282 174.300 C 78.187 173.805,78.109 174.210,78.109 175.200 M320.901 175.400 C 320.905 176.280,320.987 176.593,321.083 176.095 C 321.179 175.598,321.175 174.878,321.075 174.495 C 320.975 174.113,320.896 174.520,320.901 175.400 M194.800 176.976 C 194.800 177.293,194.980 177.664,195.200 177.800 C 195.420 177.936,195.600 177.677,195.600 177.224 C 195.600 176.771,195.420 176.400,195.200 176.400 C 194.980 176.400,194.800 176.659,194.800 176.976 M110.120 180.400 C 110.120 181.610,110.195 182.105,110.287 181.500 C 110.378 180.895,110.378 179.905,110.287 179.300 C 110.195 178.695,110.120 179.190,110.120 180.400 M321.714 237.800 C 321.717 238.900,321.795 239.303,321.887 238.695 C 321.979 238.086,321.977 237.186,321.882 236.695 C 321.787 236.203,321.711 236.700,321.714 237.800 M321.709 246.800 C 321.709 247.790,321.787 248.195,321.882 247.700 C 321.978 247.205,321.978 246.395,321.882 245.900 C 321.787 245.405,321.709 245.810,321.709 246.800 M3.600 302.976 C 3.600 303.293,3.780 303.664,4.000 303.800 C 4.220 303.936,4.400 303.677,4.400 303.224 C 4.400 302.771,4.220 302.400,4.000 302.400 C 3.780 302.400,3.600 302.659,3.600 302.976 M3.200 311.600 C 3.200 314.315,3.348 315.956,3.581 315.812 C 4.069 315.510,4.055 307.681,3.567 307.380 C 3.353 307.247,3.200 309.005,3.200 311.600 M395.843 309.833 C 395.501 310.722,395.590 312.850,396.009 313.800 C 396.252 314.354,396.349 313.769,396.322 311.900 C 396.282 309.043,396.230 308.822,395.843 309.833 M3.812 319.717 C 3.641 320.112,3.613 320.547,3.751 320.684 C 4.157 321.090,4.484 320.520,4.297 319.731 C 4.132 319.033,4.110 319.032,3.812 319.717 M67.100 385.500 C 89.595 385.557,126.405 385.557,148.900 385.500 C 171.395 385.443,152.990 385.396,108.000 385.396 C 63.010 385.396,44.605 385.443,67.100 385.500 M251.732 385.500 C 274.134 385.557,310.674 385.557,332.932 385.500 C 355.189 385.443,336.860 385.396,292.200 385.396 C 247.540 385.396,229.329 385.443,251.732 385.500 " stroke="none" fill="#00bbd4" fill-rule="evenodd"></path><path id="path2" d="M67.300 386.300 C 89.685 386.357,126.315 386.357,148.700 386.300 C 171.085 386.243,152.770 386.196,108.000 386.196 C 63.230 386.196,44.915 386.243,67.300 386.300 M251.332 386.300 C 273.734 386.357,310.274 386.357,332.532 386.300 C 354.789 386.243,336.460 386.196,291.800 386.196 C 247.140 386.196,228.929 386.243,251.332 386.300 " stroke="none" fill="#00bbd4" fill-rule="evenodd"></path><path id="path3" d="" stroke="none" fill="#00bbd4" fill-rule="evenodd"></path><path id="path4" d="" stroke="none" fill="#00bbd4" fill-rule="evenodd"></path></g></svg>